<?xml version="1.0" encoding="UTF-8" standalone="no"?>
<svg width="26px" height="32px" viewBox="0 0 26 32" version="1.1" xmlns="http://www.w3.org/2000/svg" xmlns:xlink="http://www.w3.org/1999/xlink">
    <!-- Generator: Sketch 3.6.1 (26313) - http://www.bohemiancoding.com/sketch -->
    <title>icon-pause</title>
    <desc>Created with Sketch.</desc>
    <defs></defs>
    <g id="Page-1" stroke="none" stroke-width="1" fill="none" fill-rule="evenodd">
        <path d="M1.58778626,2.39163394 C1.58778626,1.9526899 1.93860495,1.60000005 2.38137373,1.60000005 L7.14534383,1.60000005 C7.58079591,1.60000005 7.9389313,1.96045649 7.9389313,2.39163394 L7.9389313,29.608367 C7.9389313,30.047311 7.58811261,30.4000009 7.14534383,30.4000009 L2.38137373,30.4000009 C1.94592164,30.4000009 1.58778626,30.0395444 1.58778626,29.608367 L1.58778626,2.39163394 L1.58778626,2.39163394 Z M0,2.39163394 L0,29.608367 C0,30.9236312 1.06943876,32.0000009 2.38137373,32.0000009 L7.14534383,32.0000009 C8.46419091,32.0000009 9.52671756,30.9318071 9.52671756,29.608367 L9.52671756,2.39163394 C9.52671756,1.07636976 8.4572788,0 7.14534383,0 L2.38137373,0 C1.06252665,0 0,1.06819386 0,2.39163394 L0,2.39163394 Z M18.0610687,2.39163394 C18.0610687,1.9526899 18.4118874,1.60000005 18.8546562,1.60000005 L23.6186263,1.60000005 C24.0540784,1.60000005 24.4122137,1.96045649 24.4122137,2.39163394 L24.4122137,29.608367 C24.4122137,30.047311 24.0613951,30.4000009 23.6186263,30.4000009 L18.8546562,30.4000009 C18.4192041,30.4000009 18.0610687,30.0395444 18.0610687,29.608367 L18.0610687,2.39163394 L18.0610687,2.39163394 Z M16.4732824,2.39163394 L16.4732824,29.608367 C16.4732824,30.9236312 17.5427212,32.0000009 18.8546562,32.0000009 L23.6186263,32.0000009 C24.9374733,32.0000009 26,30.9318071 26,29.608367 L26,2.39163394 C26,1.07636976 24.9305612,0 23.6186263,0 L18.8546562,0 C17.5358091,0 16.4732824,1.06819386 16.4732824,2.39163394 L16.4732824,2.39163394 Z" id="icon-pause" fill="#FFFFFF"></path>
    </g>
</svg>